<?xml version="1.0" standalone="no"?>
<!DOCTYPE svg PUBLIC "-//W3C//DTD SVG 20010904//EN"
 "http://www.w3.org/TR/2001/REC-SVG-20010904/DTD/svg10.dtd">
<svg version="1.0" xmlns="http://www.w3.org/2000/svg"
 width="1000.000000pt" height="1000.000000pt" viewBox="0 0 1000.000000 1000.000000"
 preserveAspectRatio="xMidYMid meet">

<g transform="translate(0.000000,1000.000000) scale(0.100000,-0.100000)"
fill="#000000" stroke="none">
<path d="M4733 8400 c-619 -46 -1177 -244 -1668 -590 -318 -225 -644 -551
-873 -873 -428 -602 -634 -1342 -592 -2119 26 -474 123 -877 305 -1263 314
-669 916 -1284 1585 -1620 840 -422 1950 -457 2828 -89 764 320 1460 996 1799
1749 297 657 371 1446 207 2189 -164 740 -592 1402 -1239 1917 -420 334 -916
557 -1455 654 -245 44 -642 63 -897 45z m431 -540 c713 -39 1304 -297 1824
-795 488 -467 772 -1032 858 -1700 20 -158 23 -534 5 -680 -59 -484 -195 -861
-447 -1241 -59 -90 -219 -304 -227 -304 -1 0 -366 364 -810 808 l-808 808 801
609 c441 335 805 615 808 623 8 23 -33 211 -63 287 -76 191 -214 327 -416 410
-70 28 -86 32 -99 21 -12 -10 -1505 -1149 -1653 -1261 l-38 -28 -880 879
c-483 483 -879 881 -879 884 1 8 174 140 265 203 408 280 902 447 1412 476 76
4 143 9 148 9 6 1 95 -3 199 -8z m-1561 -1938 l848 -848 -441 -336 -441 -336
-82 -126 c-535 -819 -638 -979 -634 -982 2 -2 290 81 639 185 l636 190 481
366 c265 201 487 368 494 370 6 3 385 -368 841 -824 l828 -828 -58 -45 c-92
-70 -279 -191 -384 -246 -276 -147 -557 -241 -877 -293 -164 -27 -554 -37
-741 -20 -549 52 -1041 249 -1472 591 -135 107 -393 365 -500 500 -308 389
-495 818 -571 1312 -26 170 -37 553 -20 724 51 518 219 965 519 1386 43 59 79
108 82 108 3 0 387 -382 853 -848z m2596 231 c52 -34 53 -35 35 -52 -36 -35
-1132 -871 -1141 -871 -5 0 -33 25 -63 56 -45 45 -52 57 -40 64 8 5 263 198
565 429 416 317 555 418 570 414 11 -3 44 -21 74 -40z m187 -130 c13 -16 33
-45 44 -65 l20 -37 -582 -445 -583 -446 -57 57 c-32 32 -54 60 -50 64 11 12
1177 899 1180 899 2 0 14 -12 28 -27z m134 -260 c41 -110 55 -90 -172 -262
-112 -85 -353 -269 -536 -409 l-334 -255 -59 59 -59 59 562 432 c310 237 566
432 570 432 4 1 16 -25 28 -56z m-1882 -884 c-2 -4 -147 -117 -323 -252 l-320
-245 -6 29 c-10 48 -36 68 -89 71 l-47 3 336 256 336 256 58 -56 c31 -30 56
-59 55 -62z m142 -134 c47 -48 52 -57 40 -69 -23 -21 -659 -506 -665 -506 -3
0 -5 7 -5 15 0 31 -31 75 -64 92 l-34 18 332 252 c182 139 333 253 336 253 3
0 30 -25 60 -55z m193 -193 l57 -58 -372 -284 c-204 -157 -375 -286 -379 -288
-4 -2 -1 15 7 37 19 55 3 100 -37 108 -16 3 -29 8 -29 12 1 6 681 529 690 530
3 1 31 -25 63 -57z m-1082 -173 c16 -30 4 -76 -36 -136 -20 -29 -33 -53 -31
-53 2 0 23 7 46 15 23 8 65 15 92 15 93 0 126 -75 74 -172 l-24 -45 50 10 c35
7 61 6 89 -2 80 -24 70 -87 -31 -194 l-55 -59 -346 -102 -347 -103 -61 78
c-33 42 -61 80 -61 83 0 3 86 141 191 306 170 267 197 304 236 327 97 57 193
71 214 32z"/>
<path d="M176 2394 c-19 -18 -20 -28 -6 -55 19 -35 70 -17 70 26 1 18 3 17 18
-7 17 -29 32 -36 32 -17 0 18 -57 69 -79 69 -11 0 -27 -7 -35 -16z m42 -26
c-2 -12 -9 -23 -15 -26 -19 -6 -29 28 -12 39 23 14 31 10 27 -13z"/>
<path d="M177 2282 c-22 -24 -21 -35 1 -55 25 -22 75 -21 95 1 23 25 21 38 -5
56 -30 21 -71 20 -91 -2z m77 -8 c24 -9 19 -33 -8 -40 -31 -7 -66 3 -66 21 0
21 41 32 74 19z"/>
<path d="M176 2174 c-19 -18 -20 -28 -6 -55 19 -35 70 -17 70 26 1 18 3 17 18
-7 17 -29 32 -36 32 -17 0 18 -57 69 -79 69 -11 0 -27 -7 -35 -16z m42 -26
c-2 -12 -9 -23 -15 -26 -19 -6 -29 28 -12 39 23 14 31 10 27 -13z"/>
<path d="M231 2071 c-7 -5 -27 -7 -42 -4 -42 6 -38 -20 8 -52 47 -32 63 -32
63 0 0 16 6 25 15 25 8 0 15 7 15 16 0 8 -4 13 -9 9 -5 -3 -12 -1 -16 5 -8 12
-16 12 -34 1z m-2 -30 c7 -5 12 -14 9 -21 -2 -8 -11 -5 -28 9 -17 14 -20 20
-10 21 8 0 21 -4 29 -9z"/>
<path d="M188 1963 c-19 -5 -34 -45 -23 -62 11 -18 22 -12 21 12 -1 32 34 34
64 2 32 -34 40 -32 40 15 0 44 -20 56 -21 13 0 -16 -3 -22 -6 -15 -7 17 -54
39 -75 35z"/>
<path d="M235 1860 c-4 -6 -16 -8 -26 -5 -35 11 -69 -42 -39 -60 20 -12 93
-15 107 -4 18 15 16 44 -3 63 -18 19 -30 20 -39 6z m-27 -37 c-4 -22 -22 -20
-26 1 -2 10 3 16 13 16 10 0 15 -7 13 -17z m60 0 c-2 -10 -10 -18 -18 -18 -8
0 -16 8 -18 18 -2 12 3 17 18 17 15 0 20 -5 18 -17z"/>
<path d="M176 1744 c-19 -18 -20 -28 -6 -55 19 -35 70 -17 70 26 1 18 3 17 18
-7 17 -29 32 -36 32 -17 0 18 -57 69 -79 69 -11 0 -27 -7 -35 -16z m41 -38
c-4 -9 -11 -16 -17 -16 -17 0 -24 31 -9 41 18 11 34 -5 26 -25z"/>
<path d="M270 1625 l0 -25 -20 20 c-11 11 -33 20 -50 20 -23 0 -31 -5 -36 -24
-6 -25 1 -46 15 -46 4 0 7 10 7 23 -1 32 34 34 64 2 32 -34 40 -32 40 15 0 22
-4 40 -10 40 -5 0 -10 -11 -10 -25z"/>
<path d="M270 1523 l0 -27 -20 22 c-29 31 -78 30 -86 -2 -6 -25 1 -46 15 -46
4 0 7 10 7 23 -1 32 34 34 64 2 32 -34 40 -32 40 15 0 22 -4 40 -10 40 -5 0
-10 -12 -10 -27z"/>
<path d="M196 1451 c-4 -6 -12 -9 -17 -6 -5 4 -9 2 -9 -4 0 -5 6 -12 13 -15 9
-5 9 -7 0 -12 -10 -4 -9 -9 2 -20 8 -9 20 -12 26 -8 6 3 14 1 18 -5 5 -8 15
-9 31 -3 19 7 21 10 7 15 -23 9 -22 28 1 20 12 -4 11 0 -7 17 -17 17 -25 20
-31 10 -6 -9 -10 -8 -17 5 -7 12 -12 14 -17 6z m39 -41 c-3 -5 -10 -10 -16
-10 -5 0 -9 5 -9 10 0 6 7 10 16 10 8 0 12 -4 9 -10z"/>
<path d="M140 1280 c0 -6 38 -10 95 -10 57 0 95 4 95 10 0 6 -38 10 -95 10
-57 0 -95 -4 -95 -10z"/>
<path d="M261 1189 c-22 -18 -25 -19 -42 -3 -11 10 -22 14 -27 10 -4 -4 4 -16
17 -27 l23 -19 -46 0 c-34 0 -46 -4 -46 -15 0 -12 15 -15 75 -15 60 0 75 3 75
15 0 9 -9 15 -22 15 l-23 0 24 19 c13 10 22 23 20 29 -2 6 -14 3 -28 -9z"/>
<path d="M190 1081 c0 -27 27 -51 55 -51 24 0 45 25 45 54 0 25 -18 19 -22 -6
-2 -17 -10 -23 -28 -23 -18 0 -26 6 -28 23 -4 27 -22 30 -22 3z"/>
<path d="M206 994 c-19 -18 -20 -28 -6 -55 21 -39 90 -16 90 30 0 16 -30 41
-50 41 -10 0 -26 -7 -34 -16z m59 -29 c0 -22 -31 -33 -47 -17 -17 17 -1 44 24
40 15 -2 23 -10 23 -23z"/>
<path d="M190 900 c0 -5 -7 -10 -15 -10 -8 0 -15 -4 -15 -10 0 -5 6 -10 14
-10 8 0 17 -6 20 -12 5 -10 7 -10 12 0 3 6 21 12 40 12 34 0 56 22 39 38 -4 4
-10 1 -12 -5 -5 -15 -63 -18 -63 -3 0 6 -4 10 -10 10 -5 0 -10 -4 -10 -10z"/>
<path d="M212 810 c-19 -34 -35 -34 -40 -2 -5 30 -22 28 -22 -2 0 -50 54 -61
77 -16 17 34 38 32 38 -3 -1 -32 18 -31 23 2 8 53 -49 69 -76 21z"/>
<path d="M200 675 c-22 -26 3 -65 40 -65 35 0 58 36 45 67 -7 16 -9 15 -13 -7
-6 -40 -22 -48 -22 -12 0 25 -4 32 -19 32 -10 0 -24 -7 -31 -15z m30 -26 c0
-11 -4 -17 -10 -14 -5 3 -10 13 -10 21 0 8 5 14 10 14 6 0 10 -9 10 -21z"/>
<path d="M197 561 c-8 -22 -18 -31 -34 -31 -14 0 -23 -6 -23 -15 0 -23 138
-22 147 2 10 26 -19 68 -50 71 -24 3 -30 -2 -40 -27z m57 3 c28 -11 18 -34
-14 -34 -18 0 -30 5 -30 13 0 25 15 32 44 21z"/>
<path d="M206 464 c-19 -18 -20 -28 -6 -55 21 -39 90 -16 90 30 0 16 -30 41
-50 41 -10 0 -26 -7 -34 -16z m59 -29 c0 -22 -31 -33 -47 -17 -17 17 -1 44 24
40 15 -2 23 -10 23 -23z"/>
<path d="M140 350 c0 -5 11 -10 25 -10 15 0 25 -6 25 -14 0 -45 73 -62 92 -22
20 45 6 56 -72 56 -40 0 -70 -4 -70 -10z m128 -27 c-2 -12 -12 -18 -28 -18
-16 0 -26 6 -28 18 -3 13 3 17 28 17 25 0 31 -4 28 -17z"/>
<path d="M220 246 c-36 -13 -66 -29 -68 -37 -1 -9 20 -21 68 -35 38 -12 70
-17 70 -12 0 6 -9 12 -20 15 -14 4 -20 14 -20 34 0 22 5 29 20 29 11 0 20 7
20 15 0 8 -1 15 -2 14 -2 0 -32 -11 -68 -23z m8 -51 c-7 -7 -48 7 -48 15 0 15
45 16 48 2 2 -8 2 -15 0 -17z"/>
</g>
</svg>
